<?xml version="1.0" encoding="UTF-8" standalone="no"?>
<!DOCTYPE svg PUBLIC "-//W3C//DTD SVG 1.1//EN"
 "http://www.w3.org/Graphics/SVG/1.1/DTD/svg11.dtd">
<!-- Generated by graphviz version 2.43.0 (0)
 -->
<!-- Title: scheduler input for main:entry Pages: 1 -->
<svg width="658pt" height="818pt"
 viewBox="0.00 0.00 657.50 818.00" xmlns="http://www.w3.org/2000/svg" xmlns:xlink="http://www.w3.org/1999/xlink">
<g id="graph0" class="graph" transform="scale(1 1) rotate(0) translate(4 814)">
<title>scheduler input for main:entry</title>
<polygon fill="white" stroke="transparent" points="-4,4 -4,-814 653.5,-814 653.5,4 -4,4"/>
<text text-anchor="middle" x="324.75" y="-7.8" font-family="Times,serif" font-size="14.00">scheduler input for main:entry</text>
<!-- Node0x5e48ce050c68 -->
<g id="node1" class="node">
<title>Node0x5e48ce050c68</title>
<path fill="none" stroke="black" d="M509.5,-494C509.5,-494 584.5,-494 584.5,-494 590.5,-494 596.5,-500 596.5,-506 596.5,-506 596.5,-551 596.5,-551 596.5,-557 590.5,-563 584.5,-563 584.5,-563 509.5,-563 509.5,-563 503.5,-563 497.5,-557 497.5,-551 497.5,-551 497.5,-506 497.5,-506 497.5,-500 503.5,-494 509.5,-494"/>
<text text-anchor="middle" x="547" y="-547.8" font-family="Times,serif" font-size="14.00">EntryToken</text>
<polyline fill="none" stroke="black" points="497.5,-540 596.5,-540 "/>
<text text-anchor="middle" x="547" y="-524.8" font-family="Times,serif" font-size="14.00">t0</text>
<polyline fill="none" stroke="black" points="497.5,-517 596.5,-517 "/>
<text text-anchor="middle" x="518.5" y="-501.8" font-family="Times,serif" font-size="14.00">ch</text>
<polyline fill="none" stroke="black" points="539.5,-494 539.5,-517 "/>
<text text-anchor="middle" x="568" y="-501.8" font-family="Times,serif" font-size="14.00">glue</text>
</g>
<!-- Node0x5e48ce0c4a40 -->
<g id="node2" class="node">
<title>Node0x5e48ce0c4a40</title>
<path fill="none" stroke="black" d="M407.5,-365C407.5,-365 500.5,-365 500.5,-365 506.5,-365 512.5,-371 512.5,-377 512.5,-377 512.5,-422 512.5,-422 512.5,-428 506.5,-434 500.5,-434 500.5,-434 407.5,-434 407.5,-434 401.5,-434 395.5,-428 395.5,-422 395.5,-422 395.5,-377 395.5,-377 395.5,-371 401.5,-365 407.5,-365"/>
<text text-anchor="middle" x="454" y="-418.8" font-family="Times,serif" font-size="14.00">Register $x10</text>
<polyline fill="none" stroke="black" points="395.5,-411 512.5,-411 "/>
<text text-anchor="middle" x="454" y="-395.8" font-family="Times,serif" font-size="14.00">t8</text>
<polyline fill="none" stroke="black" points="395.5,-388 512.5,-388 "/>
<text text-anchor="middle" x="454" y="-372.8" font-family="Times,serif" font-size="14.00">i32</text>
</g>
<!-- Node0x5e48ce0c4810 -->
<g id="node3" class="node">
<title>Node0x5e48ce0c4810</title>
<path fill="none" stroke="black" d="M12,-482.5C12,-482.5 88,-482.5 88,-482.5 94,-482.5 100,-488.5 100,-494.5 100,-494.5 100,-562.5 100,-562.5 100,-568.5 94,-574.5 88,-574.5 88,-574.5 12,-574.5 12,-574.5 6,-574.5 0,-568.5 0,-562.5 0,-562.5 0,-494.5 0,-494.5 0,-488.5 6,-482.5 12,-482.5"/>
<text text-anchor="middle" x="50" y="-559.3" font-family="Times,serif" font-size="14.00">0</text>
<polyline fill="none" stroke="black" points="0,-551.5 100,-551.5 "/>
<text text-anchor="middle" x="50" y="-536.3" font-family="Times,serif" font-size="14.00">FACTORIAL</text>
<polyline fill="none" stroke="black" points="0,-528.5 100,-528.5 "/>
<text text-anchor="middle" x="50" y="-513.3" font-family="Times,serif" font-size="14.00">t3</text>
<polyline fill="none" stroke="black" points="0,-505.5 100,-505.5 "/>
<text text-anchor="middle" x="50" y="-490.3" font-family="Times,serif" font-size="14.00">i32</text>
</g>
<!-- Node0x5e48ce0c4960 -->
<g id="node4" class="node">
<title>Node0x5e48ce0c4960</title>
<path fill="none" stroke="black" d="M295,-611.5C295,-611.5 325,-611.5 325,-611.5 331,-611.5 337,-617.5 337,-623.5 337,-623.5 337,-691.5 337,-691.5 337,-697.5 331,-703.5 325,-703.5 325,-703.5 295,-703.5 295,-703.5 289,-703.5 283,-697.5 283,-691.5 283,-691.5 283,-623.5 283,-623.5 283,-617.5 289,-611.5 295,-611.5"/>
<text text-anchor="middle" x="296.5" y="-688.3" font-family="Times,serif" font-size="14.00">0</text>
<polyline fill="none" stroke="black" points="310,-680.5 310,-703.5 "/>
<text text-anchor="middle" x="323.5" y="-688.3" font-family="Times,serif" font-size="14.00">1</text>
<polyline fill="none" stroke="black" points="283,-680.5 337,-680.5 "/>
<text text-anchor="middle" x="310" y="-665.3" font-family="Times,serif" font-size="14.00">ADDI</text>
<polyline fill="none" stroke="black" points="283,-657.5 337,-657.5 "/>
<text text-anchor="middle" x="310" y="-642.3" font-family="Times,serif" font-size="14.00">t16</text>
<polyline fill="none" stroke="black" points="283,-634.5 337,-634.5 "/>
<text text-anchor="middle" x="310" y="-619.3" font-family="Times,serif" font-size="14.00">i32</text>
</g>
<!-- Node0x5e48ce0c4810&#45;&gt;Node0x5e48ce0c4960 -->
<g id="edge1" class="edge">
<title>Node0x5e48ce0c4810:s0&#45;&gt;Node0x5e48ce0c4960:d0</title>
<path fill="none" stroke="black" d="M101,-563.5C107.23,-563.5 103.92,-571.41 109,-575 171.18,-618.97 199.66,-622.28 271.56,-622.49"/>
<polygon fill="black" stroke="black" points="272,-625.99 282,-622.5 272,-618.99 272,-625.99"/>
</g>
<!-- Node0x5e48ce0c4730 -->
<g id="node11" class="node">
<title>Node0x5e48ce0c4730</title>
<path fill="none" stroke="black" d="M254,-740.5C254,-740.5 338,-740.5 338,-740.5 344,-740.5 350,-746.5 350,-752.5 350,-752.5 350,-797.5 350,-797.5 350,-803.5 344,-809.5 338,-809.5 338,-809.5 254,-809.5 254,-809.5 248,-809.5 242,-803.5 242,-797.5 242,-797.5 242,-752.5 242,-752.5 242,-746.5 248,-740.5 254,-740.5"/>
<text text-anchor="middle" x="296" y="-794.3" font-family="Times,serif" font-size="14.00">Register $x0</text>
<polyline fill="none" stroke="black" points="242,-786.5 350,-786.5 "/>
<text text-anchor="middle" x="296" y="-771.3" font-family="Times,serif" font-size="14.00">t13</text>
<polyline fill="none" stroke="black" points="242,-763.5 350,-763.5 "/>
<text text-anchor="middle" x="296" y="-748.3" font-family="Times,serif" font-size="14.00">i32</text>
</g>
<!-- Node0x5e48ce0c4960&#45;&gt;Node0x5e48ce0c4730 -->
<g id="edge14" class="edge">
<title>Node0x5e48ce0c4960:s0&#45;&gt;Node0x5e48ce0c4730:d0</title>
<path fill="none" stroke="black" d="M296,-704C296,-716 296,-721.25 296,-729.88"/>
<polygon fill="black" stroke="black" points="292.5,-730 296,-740 299.5,-730 292.5,-730"/>
</g>
<!-- Node0x5e48ce0c48f0 -->
<g id="node12" class="node">
<title>Node0x5e48ce0c48f0</title>
<path fill="none" stroke="black" d="M380.5,-740.5C380.5,-740.5 517.5,-740.5 517.5,-740.5 523.5,-740.5 529.5,-746.5 529.5,-752.5 529.5,-752.5 529.5,-797.5 529.5,-797.5 529.5,-803.5 523.5,-809.5 517.5,-809.5 517.5,-809.5 380.5,-809.5 380.5,-809.5 374.5,-809.5 368.5,-803.5 368.5,-797.5 368.5,-797.5 368.5,-752.5 368.5,-752.5 368.5,-746.5 374.5,-740.5 380.5,-740.5"/>
<text text-anchor="middle" x="449" y="-794.3" font-family="Times,serif" font-size="14.00">TargetConstant&lt;6&gt;</text>
<polyline fill="none" stroke="black" points="368.5,-786.5 529.5,-786.5 "/>
<text text-anchor="middle" x="449" y="-771.3" font-family="Times,serif" font-size="14.00">t15</text>
<polyline fill="none" stroke="black" points="368.5,-763.5 529.5,-763.5 "/>
<text text-anchor="middle" x="449" y="-748.3" font-family="Times,serif" font-size="14.00">i32</text>
</g>
<!-- Node0x5e48ce0c4960&#45;&gt;Node0x5e48ce0c48f0 -->
<g id="edge15" class="edge">
<title>Node0x5e48ce0c4960:s1&#45;&gt;Node0x5e48ce0c48f0:d0</title>
<path fill="none" stroke="black" d="M338,-692.5C343.63,-692.5 353.33,-727.38 360.86,-743.73"/>
<polygon fill="black" stroke="black" points="358.23,-746.05 367,-752 363.85,-741.88 358.23,-746.05"/>
</g>
<!-- Node0x5e48ce0c49d0 -->
<g id="node5" class="node">
<title>Node0x5e48ce0c49d0</title>
<path fill="none" stroke="black" d="M127,-353.5C127,-353.5 365,-353.5 365,-353.5 371,-353.5 377,-359.5 377,-365.5 377,-365.5 377,-433.5 377,-433.5 377,-439.5 371,-445.5 365,-445.5 365,-445.5 127,-445.5 127,-445.5 121,-445.5 115,-439.5 115,-433.5 115,-433.5 115,-365.5 115,-365.5 115,-359.5 121,-353.5 127,-353.5"/>
<text text-anchor="middle" x="147.5" y="-430.3" font-family="Times,serif" font-size="14.00">0</text>
<polyline fill="none" stroke="black" points="180,-422.5 180,-445.5 "/>
<text text-anchor="middle" x="213" y="-430.3" font-family="Times,serif" font-size="14.00">1</text>
<polyline fill="none" stroke="black" points="246,-422.5 246,-445.5 "/>
<text text-anchor="middle" x="278.5" y="-430.3" font-family="Times,serif" font-size="14.00">2</text>
<polyline fill="none" stroke="black" points="311,-422.5 311,-445.5 "/>
<text text-anchor="middle" x="344" y="-430.3" font-family="Times,serif" font-size="14.00">3</text>
<polyline fill="none" stroke="black" points="115,-422.5 377,-422.5 "/>
<text text-anchor="middle" x="246" y="-407.3" font-family="Times,serif" font-size="14.00">SW&lt;Mem:(store (s32) into %ir.j)&gt;</text>
<polyline fill="none" stroke="black" points="115,-399.5 377,-399.5 "/>
<text text-anchor="middle" x="246" y="-384.3" font-family="Times,serif" font-size="14.00">t7</text>
<polyline fill="none" stroke="black" points="115,-376.5 377,-376.5 "/>
<text text-anchor="middle" x="246" y="-361.3" font-family="Times,serif" font-size="14.00">ch</text>
</g>
<!-- Node0x5e48ce0c49d0&#45;&gt;Node0x5e48ce050c68 -->
<g id="edge5" class="edge">
<title>Node0x5e48ce0c49d0:s3&#45;&gt;Node0x5e48ce050c68:d0</title>
<path fill="none" stroke="blue" stroke-dasharray="5,2" d="M378,-434.5C384.23,-434.5 381.04,-442.23 386,-446 424.62,-475.33 455.52,-446.92 489,-482 492.76,-485.94 491.79,-491.82 491.23,-496.71"/>
<polygon fill="blue" stroke="blue" points="488.16,-498.38 496,-505.5 494.31,-495.04 488.16,-498.38"/>
</g>
<!-- Node0x5e48ce0c49d0&#45;&gt;Node0x5e48ce0c4810 -->
<g id="edge2" class="edge">
<title>Node0x5e48ce0c49d0:s0&#45;&gt;Node0x5e48ce0c4810:d0</title>
<path fill="none" stroke="black" d="M114,-434.5C103.77,-434.5 109.37,-468.73 106.69,-485.05"/>
<polygon fill="black" stroke="black" points="103.68,-483.25 101,-493.5 109.49,-487.16 103.68,-483.25"/>
</g>
<!-- Node0x5e48ce0c4b90 -->
<g id="node6" class="node">
<title>Node0x5e48ce0c4b90</title>
<path fill="none" stroke="black" d="M130,-494C130,-494 288,-494 288,-494 294,-494 300,-500 300,-506 300,-506 300,-551 300,-551 300,-557 294,-563 288,-563 288,-563 130,-563 130,-563 124,-563 118,-557 118,-551 118,-551 118,-506 118,-506 118,-500 124,-494 130,-494"/>
<text text-anchor="middle" x="209" y="-547.8" font-family="Times,serif" font-size="14.00">TargetFrameIndex&lt;0&gt;</text>
<polyline fill="none" stroke="black" points="118,-540 300,-540 "/>
<text text-anchor="middle" x="209" y="-524.8" font-family="Times,serif" font-size="14.00">t11</text>
<polyline fill="none" stroke="black" points="118,-517 300,-517 "/>
<text text-anchor="middle" x="209" y="-501.8" font-family="Times,serif" font-size="14.00">i32</text>
</g>
<!-- Node0x5e48ce0c49d0&#45;&gt;Node0x5e48ce0c4b90 -->
<g id="edge3" class="edge">
<title>Node0x5e48ce0c49d0:s1&#45;&gt;Node0x5e48ce0c4b90:d0</title>
<path fill="none" stroke="black" d="M213,-446C213,-462.85 210.36,-469.32 209.37,-482.28"/>
<polygon fill="black" stroke="black" points="205.86,-482.38 209,-492.5 212.86,-482.63 205.86,-482.38"/>
</g>
<!-- Node0x5e48ce0c4c00 -->
<g id="node7" class="node">
<title>Node0x5e48ce0c4c00</title>
<path fill="none" stroke="black" d="M330.5,-494C330.5,-494 467.5,-494 467.5,-494 473.5,-494 479.5,-500 479.5,-506 479.5,-506 479.5,-551 479.5,-551 479.5,-557 473.5,-563 467.5,-563 467.5,-563 330.5,-563 330.5,-563 324.5,-563 318.5,-557 318.5,-551 318.5,-551 318.5,-506 318.5,-506 318.5,-500 324.5,-494 330.5,-494"/>
<text text-anchor="middle" x="399" y="-547.8" font-family="Times,serif" font-size="14.00">TargetConstant&lt;0&gt;</text>
<polyline fill="none" stroke="black" points="318.5,-540 479.5,-540 "/>
<text text-anchor="middle" x="399" y="-524.8" font-family="Times,serif" font-size="14.00">t12</text>
<polyline fill="none" stroke="black" points="318.5,-517 479.5,-517 "/>
<text text-anchor="middle" x="399" y="-501.8" font-family="Times,serif" font-size="14.00">i32</text>
</g>
<!-- Node0x5e48ce0c49d0&#45;&gt;Node0x5e48ce0c4c00 -->
<g id="edge4" class="edge">
<title>Node0x5e48ce0c49d0:s2&#45;&gt;Node0x5e48ce0c4c00:d0</title>
<path fill="none" stroke="black" d="M279,-446C279,-466.83 298.81,-463.84 309,-482 311.7,-486.81 310.94,-492.69 310.89,-497.36"/>
<polygon fill="black" stroke="black" points="308.2,-499.6 317,-505.5 313.8,-495.4 308.2,-499.6"/>
</g>
<!-- Node0x5e48ce0c4ab0 -->
<g id="node8" class="node">
<title>Node0x5e48ce0c4ab0</title>
<path fill="none" stroke="black" d="M455.5,-224.5C455.5,-224.5 528.5,-224.5 528.5,-224.5 534.5,-224.5 540.5,-230.5 540.5,-236.5 540.5,-236.5 540.5,-304.5 540.5,-304.5 540.5,-310.5 534.5,-316.5 528.5,-316.5 528.5,-316.5 455.5,-316.5 455.5,-316.5 449.5,-316.5 443.5,-310.5 443.5,-304.5 443.5,-304.5 443.5,-236.5 443.5,-236.5 443.5,-230.5 449.5,-224.5 455.5,-224.5"/>
<text text-anchor="middle" x="459.5" y="-301.3" font-family="Times,serif" font-size="14.00">0</text>
<polyline fill="none" stroke="black" points="475.5,-293.5 475.5,-316.5 "/>
<text text-anchor="middle" x="491.5" y="-301.3" font-family="Times,serif" font-size="14.00">1</text>
<polyline fill="none" stroke="black" points="507.5,-293.5 507.5,-316.5 "/>
<text text-anchor="middle" x="524" y="-301.3" font-family="Times,serif" font-size="14.00">2</text>
<polyline fill="none" stroke="black" points="443.5,-293.5 540.5,-293.5 "/>
<text text-anchor="middle" x="492" y="-278.3" font-family="Times,serif" font-size="14.00">CopyToReg</text>
<polyline fill="none" stroke="black" points="443.5,-270.5 540.5,-270.5 "/>
<text text-anchor="middle" x="492" y="-255.3" font-family="Times,serif" font-size="14.00">t9</text>
<polyline fill="none" stroke="black" points="443.5,-247.5 540.5,-247.5 "/>
<text text-anchor="middle" x="464" y="-232.3" font-family="Times,serif" font-size="14.00">ch</text>
<polyline fill="none" stroke="black" points="484.5,-224.5 484.5,-247.5 "/>
<text text-anchor="middle" x="512.5" y="-232.3" font-family="Times,serif" font-size="14.00">glue</text>
</g>
<!-- Node0x5e48ce0c4ab0&#45;&gt;Node0x5e48ce0c4a40 -->
<g id="edge7" class="edge">
<title>Node0x5e48ce0c4ab0:s1&#45;&gt;Node0x5e48ce0c4a40:d0</title>
<path fill="none" stroke="black" d="M491,-317C491,-339.49 464.17,-338.24 456.2,-353.69"/>
<polygon fill="black" stroke="black" points="452.78,-352.98 454,-363.5 459.61,-354.51 452.78,-352.98"/>
</g>
<!-- Node0x5e48ce0c4ab0&#45;&gt;Node0x5e48ce0c49d0 -->
<g id="edge6" class="edge">
<title>Node0x5e48ce0c4ab0:s0&#45;&gt;Node0x5e48ce0c49d0:d0</title>
<path fill="none" stroke="blue" stroke-dasharray="5,2" d="M442,-305.5C409.36,-305.5 407.95,-328.85 386,-353 385.08,-354.01 384.48,-355.13 384.04,-356.26"/>
<polygon fill="blue" stroke="blue" points="381.09,-354.36 378,-364.5 386.73,-358.5 381.09,-354.36"/>
</g>
<!-- Node0x5e48ce0c4880 -->
<g id="node9" class="node">
<title>Node0x5e48ce0c4880</title>
<path fill="none" stroke="black" d="M542.5,-353.5C542.5,-353.5 637.5,-353.5 637.5,-353.5 643.5,-353.5 649.5,-359.5 649.5,-365.5 649.5,-365.5 649.5,-433.5 649.5,-433.5 649.5,-439.5 643.5,-445.5 637.5,-445.5 637.5,-445.5 542.5,-445.5 542.5,-445.5 536.5,-445.5 530.5,-439.5 530.5,-433.5 530.5,-433.5 530.5,-365.5 530.5,-365.5 530.5,-359.5 536.5,-353.5 542.5,-353.5"/>
<text text-anchor="middle" x="560" y="-430.3" font-family="Times,serif" font-size="14.00">0</text>
<polyline fill="none" stroke="black" points="589.5,-422.5 589.5,-445.5 "/>
<text text-anchor="middle" x="619.5" y="-430.3" font-family="Times,serif" font-size="14.00">1</text>
<polyline fill="none" stroke="black" points="530.5,-422.5 649.5,-422.5 "/>
<text text-anchor="middle" x="590" y="-407.3" font-family="Times,serif" font-size="14.00">CopyFromReg</text>
<polyline fill="none" stroke="black" points="530.5,-399.5 649.5,-399.5 "/>
<text text-anchor="middle" x="590" y="-384.3" font-family="Times,serif" font-size="14.00">t14</text>
<polyline fill="none" stroke="black" points="530.5,-376.5 649.5,-376.5 "/>
<text text-anchor="middle" x="561.5" y="-361.3" font-family="Times,serif" font-size="14.00">i32</text>
<polyline fill="none" stroke="black" points="592.5,-353.5 592.5,-376.5 "/>
<text text-anchor="middle" x="621" y="-361.3" font-family="Times,serif" font-size="14.00">ch</text>
</g>
<!-- Node0x5e48ce0c4ab0&#45;&gt;Node0x5e48ce0c4880 -->
<g id="edge8" class="edge">
<title>Node0x5e48ce0c4ab0:s2&#45;&gt;Node0x5e48ce0c4880:d0</title>
<path fill="none" stroke="black" d="M524,-317C524,-324.38 521.29,-344.46 523.2,-356.01"/>
<polygon fill="black" stroke="black" points="520.47,-358.22 529,-364.5 526.25,-354.27 520.47,-358.22"/>
</g>
<!-- Node0x5e48ce0c4880&#45;&gt;Node0x5e48ce050c68 -->
<g id="edge12" class="edge">
<title>Node0x5e48ce0c4880:s0&#45;&gt;Node0x5e48ce050c68:d0</title>
<path fill="none" stroke="blue" stroke-dasharray="5,2" d="M560,-446C560,-469.93 528.98,-466.51 520.26,-482.74"/>
<polygon fill="blue" stroke="blue" points="516.84,-481.97 518,-492.5 523.66,-483.55 516.84,-481.97"/>
</g>
<!-- Node0x5e48ce0c4880&#45;&gt;Node0x5e48ce0c4730 -->
<g id="edge13" class="edge">
<title>Node0x5e48ce0c4880:s1&#45;&gt;Node0x5e48ce0c4730:d0</title>
<path fill="none" stroke="black" d="M620,-446C620,-503.67 635.9,-525.68 606,-575 537.56,-687.89 452.31,-646.61 359,-740 357.87,-741.13 357.2,-742.45 356.74,-743.79"/>
<polygon fill="black" stroke="black" points="353.86,-741.8 351,-752 359.6,-745.81 353.86,-741.8"/>
</g>
<!-- Node0x5e48ce0c4b20 -->
<g id="node10" class="node">
<title>Node0x5e48ce0c4b20</title>
<path fill="none" stroke="black" d="M428,-95.5C428,-95.5 502,-95.5 502,-95.5 508,-95.5 514,-101.5 514,-107.5 514,-107.5 514,-175.5 514,-175.5 514,-181.5 508,-187.5 502,-187.5 502,-187.5 428,-187.5 428,-187.5 422,-187.5 416,-181.5 416,-175.5 416,-175.5 416,-107.5 416,-107.5 416,-101.5 422,-95.5 428,-95.5"/>
<text text-anchor="middle" x="432" y="-172.3" font-family="Times,serif" font-size="14.00">0</text>
<polyline fill="none" stroke="black" points="448,-164.5 448,-187.5 "/>
<text text-anchor="middle" x="464.5" y="-172.3" font-family="Times,serif" font-size="14.00">1</text>
<polyline fill="none" stroke="black" points="481,-164.5 481,-187.5 "/>
<text text-anchor="middle" x="497.5" y="-172.3" font-family="Times,serif" font-size="14.00">2</text>
<polyline fill="none" stroke="black" points="416,-164.5 514,-164.5 "/>
<text text-anchor="middle" x="465" y="-149.3" font-family="Times,serif" font-size="14.00">PseudoRET</text>
<polyline fill="none" stroke="black" points="416,-141.5 514,-141.5 "/>
<text text-anchor="middle" x="465" y="-126.3" font-family="Times,serif" font-size="14.00">t10</text>
<polyline fill="none" stroke="black" points="416,-118.5 514,-118.5 "/>
<text text-anchor="middle" x="465" y="-103.3" font-family="Times,serif" font-size="14.00">ch</text>
</g>
<!-- Node0x5e48ce0c4b20&#45;&gt;Node0x5e48ce0c4a40 -->
<g id="edge9" class="edge">
<title>Node0x5e48ce0c4b20:s0&#45;&gt;Node0x5e48ce0c4a40:d0</title>
<path fill="none" stroke="black" d="M432,-188C432,-245.35 423.29,-260.86 435,-317 438.77,-335.1 449.33,-339.8 452.84,-353.56"/>
<polygon fill="black" stroke="black" points="449.37,-353.97 454,-363.5 456.32,-353.16 449.37,-353.97"/>
</g>
<!-- Node0x5e48ce0c4b20&#45;&gt;Node0x5e48ce0c4ab0 -->
<g id="edge10" class="edge">
<title>Node0x5e48ce0c4b20:s1&#45;&gt;Node0x5e48ce0c4ab0:d0</title>
<path fill="none" stroke="blue" stroke-dasharray="5,2" d="M464,-188C464,-200 464,-205.25 464,-213.88"/>
<polygon fill="blue" stroke="blue" points="460.5,-214 464,-224 467.5,-214 460.5,-214"/>
</g>
<!-- Node0x5e48ce0c4b20&#45;&gt;Node0x5e48ce0c4ab0 -->
<g id="edge11" class="edge">
<title>Node0x5e48ce0c4b20:s2&#45;&gt;Node0x5e48ce0c4ab0:d1</title>
<path fill="none" stroke="red" stroke-width="2" d="M498,-188C498,-201.27 506.79,-205.16 510.91,-214.04"/>
<polygon fill="red" stroke="red" stroke-width="2" points="507.53,-214.93 513,-224 514.38,-213.49 507.53,-214.93"/>
</g>
<!-- Node0x0 -->
<g id="node13" class="node">
<title>Node0x0</title>
<ellipse fill="none" stroke="black" cx="465" cy="-41" rx="61.19" ry="18"/>
<text text-anchor="middle" x="465" y="-37.3" font-family="Times,serif" font-size="14.00">GraphRoot</text>
</g>
<!-- Node0x0&#45;&gt;Node0x5e48ce0c4b20 -->
<g id="edge16" class="edge">
<title>Node0x0&#45;&gt;Node0x5e48ce0c4b20:d0</title>
<path fill="none" stroke="blue" stroke-dasharray="5,2" d="M465,-59.19C465,-66.72 465,-75.9 465,-84.94"/>
<polygon fill="blue" stroke="blue" points="461.5,-85 465,-95 468.5,-85 461.5,-85"/>
</g>
</g>
</svg>
