<?xml version="1.0" encoding="UTF-8" standalone="no"?>
<!DOCTYPE svg PUBLIC "-//W3C//DTD SVG 1.1//EN"
 "http://www.w3.org/Graphics/SVG/1.1/DTD/svg11.dtd">
<!-- Generated by graphviz version 2.43.0 (0)
 -->
<!-- Title: isel input for main:entry Pages: 1 -->
<svg width="530pt" height="689pt"
 viewBox="0.00 0.00 529.50 689.00" xmlns="http://www.w3.org/2000/svg" xmlns:xlink="http://www.w3.org/1999/xlink">
<g id="graph0" class="graph" transform="scale(1 1) rotate(0) translate(4 685)">
<title>isel input for main:entry</title>
<polygon fill="white" stroke="transparent" points="-4,4 -4,-685 525.5,-685 525.5,4 -4,4"/>
<text text-anchor="middle" x="260.75" y="-7.8" font-family="Times,serif" font-size="14.00">isel input for main:entry</text>
<!-- Node0x63adc74abb58 -->
<g id="node1" class="node">
<title>Node0x63adc74abb58</title>
<path fill="none" stroke="black" d="M12,-494C12,-494 87,-494 87,-494 93,-494 99,-500 99,-506 99,-506 99,-551 99,-551 99,-557 93,-563 87,-563 87,-563 12,-563 12,-563 6,-563 0,-557 0,-551 0,-551 0,-506 0,-506 0,-500 6,-494 12,-494"/>
<text text-anchor="middle" x="49.5" y="-547.8" font-family="Times,serif" font-size="14.00">EntryToken</text>
<polyline fill="none" stroke="black" points="0,-540 99,-540 "/>
<text text-anchor="middle" x="49.5" y="-524.8" font-family="Times,serif" font-size="14.00">t0</text>
<polyline fill="none" stroke="black" points="0,-517 99,-517 "/>
<text text-anchor="middle" x="21" y="-501.8" font-family="Times,serif" font-size="14.00">ch</text>
<polyline fill="none" stroke="black" points="42,-494 42,-517 "/>
<text text-anchor="middle" x="70.5" y="-501.8" font-family="Times,serif" font-size="14.00">glue</text>
</g>
<!-- Node0x63adc751f180 -->
<g id="node2" class="node">
<title>Node0x63adc751f180</title>
<path fill="none" stroke="black" d="M25.5,-611.5C25.5,-611.5 189.5,-611.5 189.5,-611.5 195.5,-611.5 201.5,-617.5 201.5,-623.5 201.5,-623.5 201.5,-668.5 201.5,-668.5 201.5,-674.5 195.5,-680.5 189.5,-680.5 189.5,-680.5 25.5,-680.5 25.5,-680.5 19.5,-680.5 13.5,-674.5 13.5,-668.5 13.5,-668.5 13.5,-623.5 13.5,-623.5 13.5,-617.5 19.5,-611.5 25.5,-611.5"/>
<text text-anchor="middle" x="107.5" y="-665.3" font-family="Times,serif" font-size="14.00">TargetConstant&lt;9932&gt;</text>
<polyline fill="none" stroke="black" points="13.5,-657.5 201.5,-657.5 "/>
<text text-anchor="middle" x="107.5" y="-642.3" font-family="Times,serif" font-size="14.00">t1</text>
<polyline fill="none" stroke="black" points="13.5,-634.5 201.5,-634.5 "/>
<text text-anchor="middle" x="107.5" y="-619.3" font-family="Times,serif" font-size="14.00">i32</text>
</g>
<!-- Node0x63adc751f1f0 -->
<g id="node3" class="node">
<title>Node0x63adc751f1f0</title>
<path fill="none" stroke="black" d="M231.5,-611.5C231.5,-611.5 321.5,-611.5 321.5,-611.5 327.5,-611.5 333.5,-617.5 333.5,-623.5 333.5,-623.5 333.5,-668.5 333.5,-668.5 333.5,-674.5 327.5,-680.5 321.5,-680.5 321.5,-680.5 231.5,-680.5 231.5,-680.5 225.5,-680.5 219.5,-674.5 219.5,-668.5 219.5,-668.5 219.5,-623.5 219.5,-623.5 219.5,-617.5 225.5,-611.5 231.5,-611.5"/>
<text text-anchor="middle" x="276.5" y="-665.3" font-family="Times,serif" font-size="14.00">Constant&lt;6&gt;</text>
<polyline fill="none" stroke="black" points="219.5,-657.5 333.5,-657.5 "/>
<text text-anchor="middle" x="276.5" y="-642.3" font-family="Times,serif" font-size="14.00">t2</text>
<polyline fill="none" stroke="black" points="219.5,-634.5 333.5,-634.5 "/>
<text text-anchor="middle" x="276.5" y="-619.3" font-family="Times,serif" font-size="14.00">i32</text>
</g>
<!-- Node0x63adc751f2d0 -->
<g id="node4" class="node">
<title>Node0x63adc751f2d0</title>
<path fill="none" stroke="black" d="M295.5,-494C295.5,-494 407.5,-494 407.5,-494 413.5,-494 419.5,-500 419.5,-506 419.5,-506 419.5,-551 419.5,-551 419.5,-557 413.5,-563 407.5,-563 407.5,-563 295.5,-563 295.5,-563 289.5,-563 283.5,-557 283.5,-551 283.5,-551 283.5,-506 283.5,-506 283.5,-500 289.5,-494 295.5,-494"/>
<text text-anchor="middle" x="351.5" y="-547.8" font-family="Times,serif" font-size="14.00">FrameIndex&lt;0&gt;</text>
<polyline fill="none" stroke="black" points="283.5,-540 419.5,-540 "/>
<text text-anchor="middle" x="351.5" y="-524.8" font-family="Times,serif" font-size="14.00">t4</text>
<polyline fill="none" stroke="black" points="283.5,-517 419.5,-517 "/>
<text text-anchor="middle" x="351.5" y="-501.8" font-family="Times,serif" font-size="14.00">i32</text>
</g>
<!-- Node0x63adc751f340 -->
<g id="node5" class="node">
<title>Node0x63adc751f340</title>
<path fill="none" stroke="black" d="M419.5,-365C419.5,-365 509.5,-365 509.5,-365 515.5,-365 521.5,-371 521.5,-377 521.5,-377 521.5,-422 521.5,-422 521.5,-428 515.5,-434 509.5,-434 509.5,-434 419.5,-434 419.5,-434 413.5,-434 407.5,-428 407.5,-422 407.5,-422 407.5,-377 407.5,-377 407.5,-371 413.5,-365 419.5,-365"/>
<text text-anchor="middle" x="464.5" y="-418.8" font-family="Times,serif" font-size="14.00">Constant&lt;0&gt;</text>
<polyline fill="none" stroke="black" points="407.5,-411 521.5,-411 "/>
<text text-anchor="middle" x="464.5" y="-395.8" font-family="Times,serif" font-size="14.00">t5</text>
<polyline fill="none" stroke="black" points="407.5,-388 521.5,-388 "/>
<text text-anchor="middle" x="464.5" y="-372.8" font-family="Times,serif" font-size="14.00">i32</text>
</g>
<!-- Node0x63adc751f3b0 -->
<g id="node6" class="node">
<title>Node0x63adc751f3b0</title>
<path fill="none" stroke="black" d="M450,-494C450,-494 483,-494 483,-494 489,-494 495,-500 495,-506 495,-506 495,-551 495,-551 495,-557 489,-563 483,-563 483,-563 450,-563 450,-563 444,-563 438,-557 438,-551 438,-551 438,-506 438,-506 438,-500 444,-494 450,-494"/>
<text text-anchor="middle" x="466.5" y="-547.8" font-family="Times,serif" font-size="14.00">undef</text>
<polyline fill="none" stroke="black" points="438,-540 495,-540 "/>
<text text-anchor="middle" x="466.5" y="-524.8" font-family="Times,serif" font-size="14.00">t6</text>
<polyline fill="none" stroke="black" points="438,-517 495,-517 "/>
<text text-anchor="middle" x="466.5" y="-501.8" font-family="Times,serif" font-size="14.00">i32</text>
</g>
<!-- Node0x63adc751f490 -->
<g id="node7" class="node">
<title>Node0x63adc751f490</title>
<path fill="none" stroke="black" d="M32,-365C32,-365 125,-365 125,-365 131,-365 137,-371 137,-377 137,-377 137,-422 137,-422 137,-428 131,-434 125,-434 125,-434 32,-434 32,-434 26,-434 20,-428 20,-422 20,-422 20,-377 20,-377 20,-371 26,-365 32,-365"/>
<text text-anchor="middle" x="78.5" y="-418.8" font-family="Times,serif" font-size="14.00">Register $x10</text>
<polyline fill="none" stroke="black" points="20,-411 137,-411 "/>
<text text-anchor="middle" x="78.5" y="-395.8" font-family="Times,serif" font-size="14.00">t8</text>
<polyline fill="none" stroke="black" points="20,-388 137,-388 "/>
<text text-anchor="middle" x="78.5" y="-372.8" font-family="Times,serif" font-size="14.00">i32</text>
</g>
<!-- Node0x63adc751f260 -->
<g id="node8" class="node">
<title>Node0x63adc751f260</title>
<path fill="none" stroke="black" d="M129.5,-482.5C129.5,-482.5 253.5,-482.5 253.5,-482.5 259.5,-482.5 265.5,-488.5 265.5,-494.5 265.5,-494.5 265.5,-562.5 265.5,-562.5 265.5,-568.5 259.5,-574.5 253.5,-574.5 253.5,-574.5 129.5,-574.5 129.5,-574.5 123.5,-574.5 117.5,-568.5 117.5,-562.5 117.5,-562.5 117.5,-494.5 117.5,-494.5 117.5,-488.5 123.5,-482.5 129.5,-482.5"/>
<text text-anchor="middle" x="154.5" y="-559.3" font-family="Times,serif" font-size="14.00">0</text>
<polyline fill="none" stroke="black" points="191.5,-551.5 191.5,-574.5 "/>
<text text-anchor="middle" x="228.5" y="-559.3" font-family="Times,serif" font-size="14.00">1</text>
<polyline fill="none" stroke="black" points="117.5,-551.5 265.5,-551.5 "/>
<text text-anchor="middle" x="191.5" y="-536.3" font-family="Times,serif" font-size="14.00">llvm.riscv.factorial</text>
<polyline fill="none" stroke="black" points="117.5,-528.5 265.5,-528.5 "/>
<text text-anchor="middle" x="191.5" y="-513.3" font-family="Times,serif" font-size="14.00">t3</text>
<polyline fill="none" stroke="black" points="117.5,-505.5 265.5,-505.5 "/>
<text text-anchor="middle" x="191.5" y="-490.3" font-family="Times,serif" font-size="14.00">i32</text>
</g>
<!-- Node0x63adc751f260&#45;&gt;Node0x63adc751f180 -->
<g id="edge1" class="edge">
<title>Node0x63adc751f260:s0&#45;&gt;Node0x63adc751f180:d0</title>
<path fill="none" stroke="black" d="M116.5,-563.5C111.37,-563.5 114.49,-570.84 117.5,-575 141.31,-607.91 177.75,-578.05 201.5,-611 201.89,-611.54 202.28,-612.14 202.66,-612.76"/>
<polygon fill="black" stroke="black" points="199.16,-612.95 202.5,-623 206.16,-613.06 199.16,-612.95"/>
</g>
<!-- Node0x63adc751f260&#45;&gt;Node0x63adc751f1f0 -->
<g id="edge2" class="edge">
<title>Node0x63adc751f260:s1&#45;&gt;Node0x63adc751f1f0:d0</title>
<path fill="none" stroke="black" d="M266.5,-563.5C291.58,-563.5 234.95,-595.93 217.26,-612.91"/>
<polygon fill="black" stroke="black" points="213.8,-613.5 218.5,-623 220.75,-612.65 213.8,-613.5"/>
</g>
<!-- Node0x63adc751f420 -->
<g id="node9" class="node">
<title>Node0x63adc751f420</title>
<path fill="none" stroke="black" d="M167.5,-353.5C167.5,-353.5 377.5,-353.5 377.5,-353.5 383.5,-353.5 389.5,-359.5 389.5,-365.5 389.5,-365.5 389.5,-433.5 389.5,-433.5 389.5,-439.5 383.5,-445.5 377.5,-445.5 377.5,-445.5 167.5,-445.5 167.5,-445.5 161.5,-445.5 155.5,-439.5 155.5,-433.5 155.5,-433.5 155.5,-365.5 155.5,-365.5 155.5,-359.5 161.5,-353.5 167.5,-353.5"/>
<text text-anchor="middle" x="184.5" y="-430.3" font-family="Times,serif" font-size="14.00">0</text>
<polyline fill="none" stroke="black" points="213.5,-422.5 213.5,-445.5 "/>
<text text-anchor="middle" x="243" y="-430.3" font-family="Times,serif" font-size="14.00">1</text>
<polyline fill="none" stroke="black" points="272.5,-422.5 272.5,-445.5 "/>
<text text-anchor="middle" x="301.5" y="-430.3" font-family="Times,serif" font-size="14.00">2</text>
<polyline fill="none" stroke="black" points="330.5,-422.5 330.5,-445.5 "/>
<text text-anchor="middle" x="360" y="-430.3" font-family="Times,serif" font-size="14.00">3</text>
<polyline fill="none" stroke="black" points="155.5,-422.5 389.5,-422.5 "/>
<text text-anchor="middle" x="272.5" y="-407.3" font-family="Times,serif" font-size="14.00">store&lt;(store (s32) into %ir.j)&gt;</text>
<polyline fill="none" stroke="black" points="155.5,-399.5 389.5,-399.5 "/>
<text text-anchor="middle" x="272.5" y="-384.3" font-family="Times,serif" font-size="14.00">t7</text>
<polyline fill="none" stroke="black" points="155.5,-376.5 389.5,-376.5 "/>
<text text-anchor="middle" x="272.5" y="-361.3" font-family="Times,serif" font-size="14.00">ch</text>
</g>
<!-- Node0x63adc751f420&#45;&gt;Node0x63adc74abb58 -->
<g id="edge3" class="edge">
<title>Node0x63adc751f420:s0&#45;&gt;Node0x63adc74abb58:d0</title>
<path fill="none" stroke="blue" stroke-dasharray="5,2" d="M154.5,-434.5C148.01,-434.5 150.74,-442.17 145.5,-446 100.74,-478.74 30.32,-439.04 21.43,-482.32"/>
<polygon fill="blue" stroke="blue" points="17.93,-482.22 20.5,-492.5 24.9,-482.86 17.93,-482.22"/>
</g>
<!-- Node0x63adc751f420&#45;&gt;Node0x63adc751f2d0 -->
<g id="edge5" class="edge">
<title>Node0x63adc751f420:s2&#45;&gt;Node0x63adc751f2d0:d0</title>
<path fill="none" stroke="black" d="M301.5,-446C301.5,-455.76 285.24,-481.21 280.42,-495.46"/>
<polygon fill="black" stroke="black" points="277.04,-496.42 282.5,-505.5 283.9,-495 277.04,-496.42"/>
</g>
<!-- Node0x63adc751f420&#45;&gt;Node0x63adc751f3b0 -->
<g id="edge6" class="edge">
<title>Node0x63adc751f420:s3&#45;&gt;Node0x63adc751f3b0:d0</title>
<path fill="none" stroke="black" d="M390.5,-434.5C396.73,-434.5 394.73,-441.05 398.5,-446 411.13,-462.56 418.31,-463.84 428.5,-482 431.2,-486.81 430.44,-492.69 430.39,-497.36"/>
<polygon fill="black" stroke="black" points="427.7,-499.6 436.5,-505.5 433.3,-495.4 427.7,-499.6"/>
</g>
<!-- Node0x63adc751f420&#45;&gt;Node0x63adc751f260 -->
<g id="edge4" class="edge">
<title>Node0x63adc751f420:s1&#45;&gt;Node0x63adc751f260:d0</title>
<path fill="none" stroke="black" d="M242.5,-446C242.5,-460.23 259.74,-474.53 268.34,-483.66"/>
<polygon fill="black" stroke="black" points="264.9,-483.03 266.5,-493.5 271.78,-484.31 264.9,-483.03"/>
</g>
<!-- Node0x63adc751f500 -->
<g id="node10" class="node">
<title>Node0x63adc751f500</title>
<path fill="none" stroke="black" d="M231,-224.5C231,-224.5 304,-224.5 304,-224.5 310,-224.5 316,-230.5 316,-236.5 316,-236.5 316,-304.5 316,-304.5 316,-310.5 310,-316.5 304,-316.5 304,-316.5 231,-316.5 231,-316.5 225,-316.5 219,-310.5 219,-304.5 219,-304.5 219,-236.5 219,-236.5 219,-230.5 225,-224.5 231,-224.5"/>
<text text-anchor="middle" x="235" y="-301.3" font-family="Times,serif" font-size="14.00">0</text>
<polyline fill="none" stroke="black" points="251,-293.5 251,-316.5 "/>
<text text-anchor="middle" x="267" y="-301.3" font-family="Times,serif" font-size="14.00">1</text>
<polyline fill="none" stroke="black" points="283,-293.5 283,-316.5 "/>
<text text-anchor="middle" x="299.5" y="-301.3" font-family="Times,serif" font-size="14.00">2</text>
<polyline fill="none" stroke="black" points="219,-293.5 316,-293.5 "/>
<text text-anchor="middle" x="267.5" y="-278.3" font-family="Times,serif" font-size="14.00">CopyToReg</text>
<polyline fill="none" stroke="black" points="219,-270.5 316,-270.5 "/>
<text text-anchor="middle" x="267.5" y="-255.3" font-family="Times,serif" font-size="14.00">t9</text>
<polyline fill="none" stroke="black" points="219,-247.5 316,-247.5 "/>
<text text-anchor="middle" x="239.5" y="-232.3" font-family="Times,serif" font-size="14.00">ch</text>
<polyline fill="none" stroke="black" points="260,-224.5 260,-247.5 "/>
<text text-anchor="middle" x="288" y="-232.3" font-family="Times,serif" font-size="14.00">glue</text>
</g>
<!-- Node0x63adc751f500&#45;&gt;Node0x63adc751f340 -->
<g id="edge9" class="edge">
<title>Node0x63adc751f500:s2&#45;&gt;Node0x63adc751f340:d0</title>
<path fill="none" stroke="black" d="M317.5,-305.5C359.23,-305.5 372.12,-320.66 398.5,-353 401.99,-357.27 401.23,-363.15 400.98,-367.96"/>
<polygon fill="black" stroke="black" points="398.13,-370 406.5,-376.5 404.01,-366.2 398.13,-370"/>
</g>
<!-- Node0x63adc751f500&#45;&gt;Node0x63adc751f490 -->
<g id="edge8" class="edge">
<title>Node0x63adc751f500:s1&#45;&gt;Node0x63adc751f490:d0</title>
<path fill="none" stroke="black" d="M266.5,-317C266.5,-372.68 186.59,-314.36 146.5,-353 142.53,-356.83 143.29,-362.7 143.66,-367.62"/>
<polygon fill="black" stroke="black" points="140.5,-366.1 138.5,-376.5 146.55,-369.61 140.5,-366.1"/>
</g>
<!-- Node0x63adc751f500&#45;&gt;Node0x63adc751f420 -->
<g id="edge7" class="edge">
<title>Node0x63adc751f500:s0&#45;&gt;Node0x63adc751f420:d0</title>
<path fill="none" stroke="blue" stroke-dasharray="5,2" d="M234.5,-317C234.5,-336.08 260.07,-332.43 269.26,-343.34"/>
<polygon fill="blue" stroke="blue" points="266,-344.63 272.5,-353 272.64,-342.41 266,-344.63"/>
</g>
<!-- Node0x63adc751f570 -->
<g id="node11" class="node">
<title>Node0x63adc751f570</title>
<path fill="none" stroke="black" d="M153.5,-95.5C153.5,-95.5 305.5,-95.5 305.5,-95.5 311.5,-95.5 317.5,-101.5 317.5,-107.5 317.5,-107.5 317.5,-175.5 317.5,-175.5 317.5,-181.5 311.5,-187.5 305.5,-187.5 305.5,-187.5 153.5,-187.5 153.5,-187.5 147.5,-187.5 141.5,-181.5 141.5,-175.5 141.5,-175.5 141.5,-107.5 141.5,-107.5 141.5,-101.5 147.5,-95.5 153.5,-95.5"/>
<text text-anchor="middle" x="170.5" y="-172.3" font-family="Times,serif" font-size="14.00">0</text>
<polyline fill="none" stroke="black" points="199.5,-164.5 199.5,-187.5 "/>
<text text-anchor="middle" x="229" y="-172.3" font-family="Times,serif" font-size="14.00">1</text>
<polyline fill="none" stroke="black" points="258.5,-164.5 258.5,-187.5 "/>
<text text-anchor="middle" x="288" y="-172.3" font-family="Times,serif" font-size="14.00">2</text>
<polyline fill="none" stroke="black" points="141.5,-164.5 317.5,-164.5 "/>
<text text-anchor="middle" x="229.5" y="-149.3" font-family="Times,serif" font-size="14.00">RISCVISD::RET_GLUE</text>
<polyline fill="none" stroke="black" points="141.5,-141.5 317.5,-141.5 "/>
<text text-anchor="middle" x="229.5" y="-126.3" font-family="Times,serif" font-size="14.00">t10</text>
<polyline fill="none" stroke="black" points="141.5,-118.5 317.5,-118.5 "/>
<text text-anchor="middle" x="229.5" y="-103.3" font-family="Times,serif" font-size="14.00">ch</text>
</g>
<!-- Node0x63adc751f570&#45;&gt;Node0x63adc751f490 -->
<g id="edge11" class="edge">
<title>Node0x63adc751f570:s1&#45;&gt;Node0x63adc751f490:d0</title>
<path fill="none" stroke="black" d="M228.5,-188C228.5,-205.89 218.48,-207.99 210.5,-224 181.97,-281.29 171.09,-293.91 146.5,-353 144.38,-358.09 145.14,-363.97 145.05,-368.57"/>
<polygon fill="black" stroke="black" points="142.17,-366.56 138.5,-376.5 147.57,-371.02 142.17,-366.56"/>
</g>
<!-- Node0x63adc751f570&#45;&gt;Node0x63adc751f500 -->
<g id="edge10" class="edge">
<title>Node0x63adc751f570:s0&#45;&gt;Node0x63adc751f500:d0</title>
<path fill="none" stroke="blue" stroke-dasharray="5,2" d="M170.5,-188C170.5,-218.27 223.33,-196.65 236.54,-213.94"/>
<polygon fill="blue" stroke="blue" points="233.32,-215.4 239.5,-224 240.03,-213.42 233.32,-215.4"/>
</g>
<!-- Node0x63adc751f570&#45;&gt;Node0x63adc751f500 -->
<g id="edge12" class="edge">
<title>Node0x63adc751f570:s2&#45;&gt;Node0x63adc751f500:d1</title>
<path fill="none" stroke="red" stroke-width="2" d="M288.5,-188C288.5,-200 288.5,-205.25 288.5,-213.88"/>
<polygon fill="red" stroke="red" stroke-width="2" points="285,-214 288.5,-224 292,-214 285,-214"/>
</g>
<!-- Node0x0 -->
<g id="node12" class="node">
<title>Node0x0</title>
<ellipse fill="none" stroke="black" cx="229.5" cy="-41" rx="61.19" ry="18"/>
<text text-anchor="middle" x="229.5" y="-37.3" font-family="Times,serif" font-size="14.00">GraphRoot</text>
</g>
<!-- Node0x0&#45;&gt;Node0x63adc751f570 -->
<g id="edge13" class="edge">
<title>Node0x0&#45;&gt;Node0x63adc751f570:d0</title>
<path fill="none" stroke="blue" stroke-dasharray="5,2" d="M229.5,-59.19C229.5,-66.72 229.5,-75.9 229.5,-84.94"/>
<polygon fill="blue" stroke="blue" points="226,-85 229.5,-95 233,-85 226,-85"/>
</g>
</g>
</svg>
